<!-- icon666.com - MILLIONS vector ICONS FREE --><svg id="Layer_2_00000035523621330114141920000003788485792778963860_" enable-background="new 0 0 512 512" viewBox="0 0 512 512" xmlns="http://www.w3.org/2000/svg"><g id="Icon"><path id="_6" d="m351.2 285.1c0 13.2-2.4 25.7-7.1 37.4s-11.2 22-19.6 30.9c-8.3 8.8-18.2 15.8-29.6 20.9s-23.9 7.7-37.2 7.7-25.9-2.6-37.7-7.7-22.1-12.1-30.8-20.9c-8.8-8.8-15.7-19.1-20.8-30.9-5.1-11.7-7.6-24.2-7.6-37.4 0-15.7 1.5-31.1 4.6-46.1s7.6-29.2 13.5-42.5c5.9-13.4 13.2-25.7 21.7-37s18.2-21.1 29-29.6h66.1c-6.8 4.4-13.5 9.4-20 14.9s-12.7 11.3-18.5 17.6c-5.9 6.3-11.3 12.9-16.3 19.8s-9.5 14.2-13.3 21.7c4.9-3.3 10.2-6.1 16-8.5 5.8-2.3 11.7-3.5 17.7-3.5 13.8 0 26.2 2.3 37.3 6.9s20.5 11.1 28.3 19.3c7.8 8.3 13.7 18.1 18 29.5 4.2 11.5 6.3 24 6.3 37.5zm-49.1 0c0-6.5-1.1-12.6-3.2-18.4s-5.1-10.8-9-15.2-8.5-7.8-14-10.3-11.6-3.8-18.3-3.8-12.8 1.2-18.3 3.8c-5.5 2.5-10.1 6-13.9 10.3-3.8 4.4-6.8 9.5-8.8 15.2s-3.1 11.9-3.1 18.4 1.1 12.3 3.2 18 5.1 10.9 9 15.3 8.5 8 13.9 10.6 11.4 3.9 18 3.9 12.8-1.2 18.3-3.8c5.5-2.5 10.1-5.9 14-10.3s6.9-9.5 9-15.3c2.2-5.7 3.2-11.9 3.2-18.4z"></path></g></svg>