<!-- icon666.com - MILLIONS vector ICONS FREE --><svg id="Layer_2_00000032643735980099265950000000635331659614828472_" enable-background="new 0 0 512 512" viewBox="0 0 512 512" xmlns="http://www.w3.org/2000/svg"><g id="Icon"><path id="_5" d="m343.8 301.5c0 12-2.1 22.7-6.3 32.3s-9.9 17.7-16.9 24.3c-7.1 6.6-15.2 11.7-24.5 15.2s-19 5.3-29.1 5.3h-98.8v-49.1h98.8c3.3 0 6.6-.5 10-1.5s6.4-2.7 9.1-5 4.8-5.2 6.5-8.7 2.5-7.8 2.5-12.8c0-4.6-.8-8.6-2.5-12-1.6-3.5-3.8-6.4-6.5-8.7s-5.7-4.1-9.1-5.3-6.7-1.8-10-1.8h-98.8l14.4-140.1h151.2v49.1h-107.2l-4.4 42h44.8c10.1 0 19.8 1.8 29.1 5.3s17.5 8.6 24.5 15.3c7.1 6.7 12.7 14.8 16.9 24.3 4.2 9.3 6.4 20 6.3 31.9z"></path></g></svg>