<!-- icon666.com - MILLIONS vector ICONS FREE --><svg id="Layer_2_00000148624194385932895230000007623082809164557751_" enable-background="new 0 0 512 512" viewBox="0 0 512 512" xmlns="http://www.w3.org/2000/svg"><g id="Icon"><path id="_8" d="m351.9 309.2c0 11-2.5 21.2-7.5 30.6-5 9.3-11.9 17.4-20.6 24.2s-18.9 12.1-30.5 15.9-24 5.7-37.3 5.7-25.6-1.9-37.3-5.7c-11.6-3.8-21.8-9.1-30.5-15.9s-15.6-14.8-20.6-24.2c-5-9.3-7.5-19.5-7.5-30.6 0-6.4.9-12.6 2.6-18.7s4.2-11.8 7.4-17.2c3.2-5.3 7.1-10.3 11.7-14.8 4.5-4.5 9.7-8.3 15.4-11.5-3.5-3.1-6.7-6.6-9.5-10.6s-5.2-8.2-7.2-12.6-3.5-9-4.5-13.8-1.5-9.4-1.5-14.1c0-9.6 2.1-18.5 6.4-26.9s10.1-15.7 17.5-22 16.1-11.3 26-14.9 20.5-5.5 31.6-5.5c11.2 0 21.9 1.8 31.8 5.5 9.9 3.6 18.6 8.6 26.1 14.9s13.3 13.7 17.6 22c4.3 8.4 6.4 17.3 6.4 26.9 0 4.7-.5 9.4-1.6 14.1s-2.6 9.3-4.5 13.8-4.3 8.8-7.1 12.7c-2.8 4-6 7.6-9.5 10.8 5.6 3.2 10.6 7 15.2 11.4s8.4 9.3 11.6 14.7 5.6 11 7.3 17.1 2.6 12.3 2.6 18.7zm-48.7-1.4c0-5.5-1.2-10.6-3.7-15.3-2.4-4.7-5.8-8.9-10.1-12.4s-9.3-6.3-15-8.4c-5.8-2.1-11.9-3.1-18.4-3.1s-12.6 1-18.3 3.1c-5.7 2-10.7 4.8-15 8.4-4.3 3.5-7.6 7.7-10.1 12.4s-3.7 9.8-3.7 15.3 1.2 10.5 3.7 15c2.4 4.6 5.8 8.5 10.1 11.8s9.3 5.9 15 7.8 11.8 2.8 18.3 2.8 12.6-.9 18.4-2.8 10.8-4.5 15-7.8c4.3-3.3 7.6-7.2 10.1-11.8s3.7-9.6 3.7-15zm-13.4-106.7c0-4-.9-7.7-2.7-11.2s-4.2-6.5-7.2-9.1-6.6-4.7-10.7-6.1c-4.1-1.5-8.4-2.2-13-2.2s-9.1.7-13.2 2.2-7.7 3.5-10.7 6.1-5.4 5.7-7.2 9.1c-1.8 3.5-2.6 7.2-2.6 11.2s.9 7.7 2.6 11.1c1.8 3.4 4.2 6.4 7.2 8.9s6.6 4.5 10.7 6 8.5 2.2 13.2 2.2 8.9-.7 13-2.2 7.7-3.5 10.7-6 5.4-5.5 7.2-8.9 2.7-7.1 2.7-11.1z"></path></g></svg>