<!-- icon666.com - MILLIONS vector ICONS FREE --><svg id="Layer_2_00000047748126962626178310000007403062665500856508_" enable-background="new 0 0 512 512" viewBox="0 0 512 512" xmlns="http://www.w3.org/2000/svg"><g id="Icon"><path id="_3" d="m341.8 305c0 10.1-1.9 19.7-5.8 28.5-3.9 8.9-9.1 16.7-15.8 23.3-6.7 6.7-14.4 11.9-23.3 15.8s-18.4 5.8-28.5 5.8h-98.1v-49h98.1c3.4 0 6.6-.6 9.6-1.9 3-1.2 5.5-3 7.8-5.2 2.2-2.2 4-4.8 5.2-7.8s1.9-6.2 1.9-9.6-.6-6.6-1.9-9.6-3-5.5-5.2-7.8c-2.2-2.2-4.8-4-7.8-5.2s-6.2-1.9-9.6-1.9h-66.8v-49.1h66.8c3.4 0 6.6-.6 9.6-1.9 3-1.2 5.5-3 7.8-5.2 2.2-2.2 4-4.8 5.2-7.9s1.9-6.2 1.9-9.7-.6-6.6-1.9-9.6c-1.2-3-3-5.6-5.2-7.8s-4.8-4-7.8-5.2-6.2-1.9-9.6-1.9h-98.1v-49h98.1c10.1 0 19.6 1.9 28.5 5.8s16.7 9.1 23.3 15.8c6.7 6.7 11.9 14.4 15.8 23.3s5.8 18.4 5.8 28.5c0 9-1.6 17.8-5 26.2-3.3 8.5-8 16.1-14 22.8 6 6.7 10.7 14.3 14 22.8 3.3 9 5 17.8 5 26.7z"></path></g></svg>