<!-- icon666.com - MILLIONS vector ICONS FREE --><svg id="Layer_2_00000023283192353808498340000000148893203689771910_" enable-background="new 0 0 512 512" viewBox="0 0 512 512" xmlns="http://www.w3.org/2000/svg"><g id="Icon"><path id="_0" d="m354 256c0 23.2-2.6 42.9-7.7 59s-12.1 29-21 39c-8.9 9.9-19.3 17.1-31.2 21.5s-24.6 6.6-38.2 6.6-26.3-2.2-38.2-6.8-22.3-11.7-31.1-21.7-15.8-23-20.9-39-7.7-35.5-7.7-58.5 2.6-42.9 7.7-58.9 12.1-29 20.9-38.9 19.2-17.1 31.1-21.5 24.7-6.7 38.2-6.7c13.6 0 26.3 2.2 38.2 6.8 11.9 4.5 22.3 11.8 31.2 21.8s15.9 23 21 39c5.2 15.8 7.7 35.3 7.7 58.3zm-46.6 0c0-27.2-4.5-47.4-13.6-60.7s-21.7-19.8-37.9-19.8-28.5 6.5-37.4 19.6-13.3 33.4-13.3 60.8 4.4 47.5 13.3 60.7 21.4 19.8 37.4 19.8c8.1 0 15.3-1.6 21.7-4.9 6.4-3.2 11.8-8.2 16.1-14.8 4.4-6.6 7.8-15 10.1-25 2.4-10 3.5-21.9 3.6-35.7z"></path></g></svg>