<!-- icon666.com - MILLIONS vector ICONS FREE --><svg id="Layer_2_00000094608345783074411080000005272441338119779724_" enable-background="new 0 0 512 512" viewBox="0 0 512 512" xmlns="http://www.w3.org/2000/svg"><g id="Icon"><path id="_9" d="m351.2 227c0 15.7-1.6 31.1-4.7 46.1s-7.7 29.1-13.6 42.5c-5.9 13.3-13.2 25.6-21.7 36.9s-18.2 21.1-29 29.6h-66.2c6.9-4.4 13.7-9.4 20.2-14.9s12.7-11.3 18.5-17.6c5.9-6.3 11.3-12.9 16.3-19.8s9.5-14.1 13.3-21.5c-5 3.3-10.4 6.1-16.1 8.5-5.7 2.3-11.6 3.5-17.6 3.5-13.9 0-26.4-2.3-37.4-6.9s-20.5-11-28.3-19.3-13.8-18.1-17.9-29.5c-4.2-11.4-6.2-23.9-6.2-37.4s2.4-25.7 7.1-37.5 11.2-22.1 19.6-30.9c8.3-8.8 18.2-15.8 29.6-20.9s23.8-7.7 37.1-7.7 26.1 2.6 37.9 7.7 22.1 12.1 30.9 20.9 15.7 19.1 20.8 30.9c4.9 11.6 7.4 24.1 7.4 37.3zm-52.5 0c0-6.3-1.1-12.3-3.2-18.1-2.2-5.8-5.2-10.9-9.1-15.4s-8.6-8-14.1-10.6-11.5-3.9-18.1-3.9-12.8 1.3-18.2 3.8c-5.4 2.6-10.1 6-13.9 10.3-3.9 4.3-6.8 9.4-8.9 15.2-2 5.8-3.1 12-3.1 18.6s1 12.6 3.1 18.4 5 10.8 8.9 15.1 8.5 7.8 13.9 10.2c5.4 2.5 11.5 3.8 18.2 3.8s12.8-1.2 18.4-3.8c5.5-2.5 10.2-5.9 14.1-10.2s6.9-9.4 9-15.1c2-5.7 3-11.8 3-18.3z"></path></g></svg>