<!-- icon666.com - MILLIONS vector ICONS FREE --><svg viewBox="0 0 24 24" xmlns="http://www.w3.org/2000/svg"><g id="squared" fill="none" fill-rule="evenodd"><path id="Fill-13" d="m20.5 10.001h-5c-.276 0-.5-.224-.5-.5 0-1.489 1.568-2.251 2.952-2.923 1.007-.49 2.048-.995 2.048-1.577 0-.473-.719-1-1.75-1-.895 0-1.497.39-1.678.751-.124.249-.423.347-.671.224-.247-.123-.346-.424-.223-.671.396-.792 1.406-1.304 2.572-1.304 1.542 0 2.75.878 2.75 2 0 1.208-1.327 1.853-2.61 2.476-.934.453-1.892.919-2.246 1.524h4.356c.276 0 .5.224.5.5s-.224.5-.5.5m-7 9c-.136 0-.271-.055-.37-.164l-4.63-5.093-4.63 5.093c-.185.205-.501.22-.706.034s-.22-.502-.034-.706l4.694-5.164-4.694-5.164c-.186-.204-.171-.52.034-.706.205-.185.521-.17.706.034l4.63 5.093 4.63-5.093c.186-.204.503-.219.706-.034.205.186.22.502.034.706l-4.694 5.164 4.694 5.164c.186.204.171.52-.034.706-.096.087-.216.13-.336.13" fill="rgb(0,0,0)"></path></g></svg>